{
	"asset":{
		"generator":"Khronos glTF Blender I/O v5.0.21",
		"version":"2.0"
	},
	"scene":0,
	"scenes":[
		{
			"name":"Scene",
			"nodes":[
				0,
				1,
				2,
				3
			]
		}
	],
	"nodes":[
		{
			"mesh":0,
			"name":"MapObject"
		},
		{
			"extras":{
				"skein":[
					{
						"graph_runner::controller::PlayerController":{}
					}
				]
			},
			"mesh":1,
			"name":"PlayerObject",
			"translation":[
				7.876231670379639,
				16.16581153869629,
				0
			]
		},
		{
			"mesh":2,
			"name":"MapCollisionsObject"
		},
		{
			"mesh":3,
			"name":"WaterVolumeObject",
			"translation":[
				15.184372901916504,
				12.15153694152832,
				0
			]
		}
	],
	"materials":[
		{
			"doubleSided":true,
			"name":"TerrainMaterial",
			"pbrMetallicRoughness":{
				"baseColorFactor":[
					0.04932481423020363,
					0.15606766939163208,
					0.005425953771919012,
					1
				],
				"metallicFactor":0,
				"roughnessFactor":0.5
			}
		},
		{
			"doubleSided":true,
			"name":"PlayerMaterial",
			"pbrMetallicRoughness":{
				"baseColorFactor":[
					0.8002997636795044,
					0.4567461907863617,
					0.2423391044139862,
					1
				],
				"metallicFactor":0,
				"roughnessFactor":0.5
			}
		}
	],
	"meshes":[
		{
			"extras":{
				"skein":[
					{
						"avian3d::dynamics::rigid_body::RigidBody":"Static"
					},
					{
						"graph_runner::markers::Trimesh":{}
					}
				]
			},
			"name":"MapMesh",
			"primitives":[
				{
					"attributes":{
						"POSITION":0,
						"NORMAL":1
					},
					"indices":2,
					"material":0
				}
			]
		},
		{
			"name":"PlayerMesh",
			"primitives":[
				{
					"attributes":{
						"POSITION":3,
						"NORMAL":4
					},
					"indices":5,
					"material":1
				}
			]
		},
		{
			"extras":{
				"skein":[
					{
						"bevy_camera::visibility::Visibility":"Hidden"
					}
				]
			},
			"name":"MapCollisionsMesh",
			"primitives":[
				{
					"attributes":{
						"POSITION":6,
						"NORMAL":7
					},
					"indices":8,
					"material":0
				}
			]
		},
		{
			"extras":{
				"skein":[
					{
						"avian3d::dynamics::rigid_body::RigidBody":"Static"
					},
					{
						"graph_runner::markers::Trimesh":{}
					},
					{
						"graph_runner::markers::WaterVolume":{}
					}
				]
			},
			"name":"WaterVolumeMesh",
			"primitives":[
				{
					"attributes":{
						"POSITION":9,
						"NORMAL":10
					},
					"indices":11,
					"material":0
				}
			]
		}
	],
	"accessors":[
		{
			"bufferView":0,
			"componentType":5126,
			"count":452,
			"max":[
				34.270442962646484,
				19.38048553466797,
				0.5
			],
			"min":[
				-3,
				-3,
				-0.5
			],
			"type":"VEC3"
		},
		{
			"bufferView":1,
			"componentType":5126,
			"count":452,
			"type":"VEC3"
		},
		{
			"bufferView":2,
			"componentType":5123,
			"count":870,
			"type":"SCALAR"
		},
		{
			"bufferView":3,
			"componentType":5126,
			"count":258,
			"max":[
				0.22360624372959137,
				0.8657501935958862,
				0.5818575620651245
			],
			"min":[
				-0.24496187269687653,
				-0.8700000047683716,
				-0.5818575620651245
			],
			"type":"VEC3"
		},
		{
			"bufferView":4,
			"componentType":5126,
			"count":258,
			"type":"VEC3"
		},
		{
			"bufferView":5,
			"componentType":5123,
			"count":378,
			"type":"SCALAR"
		},
		{
			"bufferView":6,
			"componentType":5126,
			"count":106,
			"max":[
				32,
				8,
				0.5
			],
			"min":[
				-3,
				-3,
				-0.5
			],
			"type":"VEC3"
		},
		{
			"bufferView":7,
			"componentType":5126,
			"count":106,
			"type":"VEC3"
		},
		{
			"bufferView":8,
			"componentType":5123,
			"count":168,
			"type":"SCALAR"
		},
		{
			"bufferView":9,
			"componentType":5126,
			"count":24,
			"max":[
				7.194695472717285,
				2.308495283126831,
				0.5
			],
			"min":[
				-7.194695472717285,
				-2.308495283126831,
				-0.5
			],
			"type":"VEC3"
		},
		{
			"bufferView":10,
			"componentType":5126,
			"count":24,
			"type":"VEC3"
		},
		{
			"bufferView":11,
			"componentType":5123,
			"count":36,
			"type":"SCALAR"
		}
	],
	"bufferViews":[
		{
			"buffer":0,
			"byteLength":5424,
			"byteOffset":0,
			"target":34962
		},
		{
			"buffer":0,
			"byteLength":5424,
			"byteOffset":5424,
			"target":34962
		},
		{
			"buffer":0,
			"byteLength":1740,
			"byteOffset":10848,
			"target":34963
		},
		{
			"buffer":0,
			"byteLength":3096,
			"byteOffset":12588,
			"target":34962
		},
		{
			"buffer":0,
			"byteLength":3096,
			"byteOffset":15684,
			"target":34962
		},
		{
			"buffer":0,
			"byteLength":756,
			"byteOffset":18780,
			"target":34963
		},
		{
			"buffer":0,
			"byteLength":1272,
			"byteOffset":19536,
			"target":34962
		},
		{
			"buffer":0,
			"byteLength":1272,
			"byteOffset":20808,
			"target":34962
		},
		{
			"buffer":0,
			"byteLength":336,
			"byteOffset":22080,
			"target":34963
		},
		{
			"buffer":0,
			"byteLength":288,
			"byteOffset":22416,
			"target":34962
		},
		{
			"buffer":0,
			"byteLength":288,
			"byteOffset":22704,
			"target":34962
		},
		{
			"buffer":0,
			"byteLength":72,
			"byteOffset":22992,
			"target":34963
		}
	],
	"buffers":[
		{
			"byteLength":23064,
			"uri":"models.bin"
		}
	]
}
